<?xml version="1.0" encoding="UTF-8"?>
<svg id="Capa_1" xmlns="http://www.w3.org/2000/svg" viewBox="0 0 42 27.14">
  <defs>
    <style>
      .cls-1 {
        fill: #ff7d00;
      }
    </style>
  </defs>
  <path class="cls-1" d="M28.43,0c-4.13,0-7.98,1.85-10.58,5.09-.13.16-.16.37-.1.55.07.19.23.33.42.37,1,.22,1.83.5,2.35.7.07.02.14.04.2.04.15,0,.31-.06.42-.18,1.92-2,4.51-3.1,7.28-3.1,5.13,0,9.44,3.84,10.03,8.92.01.09.02.18.03.27,0,.11.02.21.02.32,0,.04,0,.07,0,.1v.05c0,.14.01.29.01.43,0,5.57-4.53,10.1-10.1,10.1-.36,0-.73-.02-1.1-.06-.02,0-.04,0-.06,0,0,0,0,0-.01,0-.07,0-.68.03-1.16.58-.44.51-.6,1.27-.47,2.25.03.25.22.45.48.5.78.14,1.56.2,2.33.2,7.48,0,13.57-6.09,13.57-13.57S35.91,0,28.43,0"/>
  <path class="cls-1" d="M26.15,22.15c.74-.48,1.58-.86,2.43-1.21.44-.18.87-.36,1.3-.54.44-.2.88-.4,1.3-.64.43-.23.84-.5,1.23-.79.19-.16.39-.3.56-.48.09-.08.18-.16.27-.26l.25-.27c.66-.74,1.11-1.65,1.34-2.56.05-.23.09-.46.13-.68.02-.23.05-.48.06-.7v-.63c0-.21-.02-.42-.04-.63-.02-.25-.05-.56-.09-.8,0,0-.06-.24-.26-.26-.16-.03-.74.4-1.07.66.03.17.05.31.06.49.01.19.01.38.01.56,0,.19-.01.38-.02.58-.02.17-.04.35-.06.52-.04.18-.06.36-.11.54l-.08.26-.04.13-.05.13-.1.25c-.04.09-.09.16-.13.24-.08.17-.19.32-.29.48-.05.08-.11.15-.17.23-.06.07-.11.15-.18.22-.02.02-.04.03-.06.06-.14-.44-.58-1.89-.5-2.9.18-1.67,2.52-2.96,2.82-2.93.31.03.41.64.41.64,0,0,1-1.89.3-2.36-.25-.17-.68-.19-1.11-.14-.12-.35-.25-.69-.39-1.01-.3-.64-.61-1.24-1.12-1.76-.13-.13-.29-.25-.48-.36-.06-.02-.1-.05-.17-.07-.08-.02-.17-.04-.23-.05h-.05s-.03,0-.03,0h-.01c-.11,0-.04,0-.07,0-.05,0-.11,0-.16.02-.42.07-.68.24-.93.39-.48.32-.83.65-1.15.94-.03.03-.06.06-.09.08-.1.08-.22.18-.35.32-.05.04-.09.08-.14.12-.43.31-.84-.03-1.06-.28-.55-.71-1.54-1.92-1.87-1.99-.4-.08-.94.64-.72,1.19,0,0,.03.04.1.09.06.04.03-.43.24-.38.22.04.24.75.43.9,0,0-.39.28-.72-.04,0,0-.08-.07-.17-.15-.08-.07-.16.25.04.42.2.18.31.3.68.43.2.07.84.3,1.51.61,1.1.7,1.66.16,1.66.16.04-.02.08-.04.11-.07.31-.21.6-.46.93-.73.33-.27.69-.56,1.07-.79.19-.11.41-.2.55-.21,0,0,.02,0,.02,0h.01s.05,0,.05,0c.01,0-.02,0-.02,0,0,0,.02.01.03.02.05.03.13.1.2.18.31.35.59.89.81,1.46.09.22.2.55.27.79-.19.05-.32.09-.32.09-.14-.32-.39-.61-.84-.52-.42.12-1.07.54-1.98,1.16-.94.61-1.85.52-1.85.52.27.63.69.76.69.76-.91.7-1.39,1.97-1.39,1.97-.41.88-.85,2.06-1.1,3.46-.41-.03-.87-.16-.87-.16-1.37-.44-2.08-.78-2.08-.78,0,0-3.09-1.26-1.14-4.18,0,0,1.63-1.78-1.48-3.26,0,0-2.33-1.15-5.27-1.27-2.93-.12-10.91-.32-15.43-.94,0,0,5.73,5.34,7.66,7.04,0,0,1,.93,2.18.82,0,0,1.96-.03,4.67-.63,0,0-1.44,1.23-3.11,1.45,0,0,1.7,3.38,4.08,4.74,0,0,.81.45,1.61.29,0,0,1.75-.24,3.2-.97,0,0-.74,1.1-3.05,1.69,0,0,2.32,1.87,5.78,2.66,0,0-.19,1.21,1.03,1.96,0-.56.11-1.1.36-1.58.35-.71.99-1.3,1.73-1.78"/>
</svg>