<?xml version="1.0" encoding="UTF-8"?>
<svg id="Capa_1" xmlns="http://www.w3.org/2000/svg" version="1.1" viewBox="0 0 704.42 234.52">
  <!-- Generator: Adobe Illustrator 29.3.0, SVG Export Plug-In . SVG Version: 2.1.0 Build 146)  -->
  <defs>
    <style>
      .st0 {
        fill: #fff;
      }
    </style>
  </defs>
  <path class="st0" d="M245.72,0c-35.66,0-68.98,16.02-91.42,43.95-1.08,1.35-1.39,3.16-.82,4.79.58,1.63,1.95,2.85,3.64,3.23,8.65,1.92,15.84,4.35,20.34,6.05.58.22,1.18.32,1.77.32,1.34,0,2.65-.54,3.61-1.54,16.62-17.29,38.96-26.81,62.89-26.81,44.3,0,81.55,33.14,86.65,77.1.09.79.17,1.57.24,2.36.08.91.16,1.83.21,2.76.02.31.03.6.04.9l.02.43c.05,1.22.1,2.46.1,3.72,0,48.12-39.14,87.26-87.26,87.26-3.08,0-6.27-.17-9.47-.52-.18-.02-.36-.03-.54-.03-.03,0-.07,0-.11,0-.59.01-5.9.26-10.01,5.03-3.8,4.4-5.18,10.95-4.1,19.45.28,2.18,1.94,3.93,4.11,4.3,6.73,1.17,13.5,1.76,20.12,1.76,64.66,0,117.26-52.6,117.26-117.26S310.38,0,245.72,0"/>
  <path class="st0" d="M226,191.43c6.39-4.16,13.62-7.42,20.96-10.5,3.77-1.54,7.49-3.12,11.22-4.66,3.8-1.69,7.6-3.42,11.26-5.49,3.7-1.99,7.26-4.3,10.67-6.82,1.63-1.35,3.34-2.62,4.84-4.12.77-.73,1.57-1.41,2.32-2.22l2.15-2.34c5.71-6.38,9.59-14.27,11.56-22.14.47-1.98.77-3.95,1.11-5.91.2-2.02.4-4.12.51-6.05v-5.48c-.05-1.84-.19-3.63-.31-5.42-.2-2.12-.45-4.85-.75-6.9,0,0-.53-2.11-2.24-2.21-1.38-.25-6.39,3.42-9.28,5.71.22,1.43.46,2.65.55,4.19.1,1.61.12,3.25.12,4.87-.06,1.66-.09,3.31-.16,4.98-.2,1.49-.35,2.99-.56,4.52-.3,1.52-.56,3.11-.98,4.64l-.71,2.25-.36,1.16-.45,1.08-.9,2.2c-.35.74-.77,1.41-1.13,2.12-.68,1.46-1.64,2.74-2.51,4.12-.45.67-.99,1.29-1.51,1.95-.51.62-.96,1.32-1.57,1.89-.16.16-.31.3-.48.48-1.22-3.76-5.05-16.32-4.36-25.08,1.52-14.46,21.77-25.59,24.36-25.3,2.65.3,3.57,5.52,3.57,5.52,0,0,8.6-16.37,2.63-20.39-2.19-1.47-5.84-1.63-9.62-1.25-1.03-3.02-2.17-5.94-3.41-8.75-2.59-5.54-5.28-10.69-9.7-15.2-1.16-1.11-2.48-2.19-4.18-3.09-.48-.21-.9-.4-1.44-.61-.65-.2-1.45-.39-1.96-.45l-.46-.03-.23-.02h-.11c-.91-.05-.36,0-.6-.01-.47.03-.99.06-1.41.13-3.59.61-5.9,2.07-8.03,3.4-4.13,2.76-7.2,5.62-9.96,8.11-.25.25-.5.48-.76.7-.87.66-1.87,1.54-3.06,2.78-.41.37-.8.7-1.18,1.04-3.7,2.65-7.25-.3-9.15-2.4-4.71-6.14-13.35-16.61-16.19-17.22-3.47-.72-8.13,5.5-6.2,10.26,0,0,.28.37.85.76.54.37.24-3.68,2.08-3.31,1.87.37,2.09,6.52,3.72,7.81,0,0-3.39,2.44-6.23-.31,0,0-.69-.64-1.44-1.3-.71-.64-1.42,2.18.38,3.67,1.76,1.53,2.69,2.56,5.87,3.72,1.73.59,7.22,2.57,13.06,5.28,9.48,6.02,14.39,1.38,14.39,1.38.35-.19.65-.38.97-.61,2.71-1.82,5.19-3.99,8.02-6.3,2.83-2.29,5.95-4.84,9.27-6.84,1.65-.96,3.51-1.77,4.73-1.83.07-.01.14,0,.2,0l.12.02.45.05c.09.06-.13.08-.17.03,0,.02.17.11.25.14.46.27,1.11.84,1.76,1.53,2.67,2.98,5.07,7.66,7.03,12.65.77,1.94,1.7,4.74,2.34,6.87-1.67.45-2.73.79-2.73.79-1.19-2.76-3.33-5.27-7.23-4.46-3.63,1.03-9.27,4.63-17.09,10.02-8.09,5.28-16.01,4.49-16.01,4.49,2.37,5.43,5.99,6.6,5.99,6.6-7.82,6.09-12.03,17.01-12.03,17.01-3.53,7.58-7.32,17.8-9.5,29.92-3.53-.26-7.52-1.41-7.52-1.41-11.86-3.78-17.98-6.72-17.98-6.72,0,0-26.68-10.88-9.89-36.12,0,0,14.09-15.39-12.81-28.16,0,0-20.17-9.93-45.5-11-25.31-1.08-94.25-2.8-133.33-8.15,0,0,49.55,46.18,66.22,60.87,0,0,8.6,8.03,18.81,7.05,0,0,16.96-.3,40.37-5.46,0,0-12.46,10.63-26.85,12.5,0,0,14.7,29.24,35.28,41.01,0,0,6.96,3.87,13.94,2.54,0,0,15.13-2.08,27.68-8.35,0,0-6.37,9.47-26.37,14.62,0,0,20.07,16.12,49.94,23,0,0-1.6,10.5,8.86,16.95.02-4.86.96-9.5,3.14-13.61,3.04-6.18,8.58-11.27,14.96-15.37"/>
  <path class="st0" d="M432.68,82.83c4.76,1.98,7.32,6.15,7.32,11.42,0,9.01-6,15.15-16.25,15.15h-23.79v-51.17h21.74c9.37,0,16.11,5.56,16.11,15.15,0,3.73-1.9,7.47-5.13,9.44M410.86,67.6v11.64h10.03c3.73,0,6.07-2.05,6.15-5.49.07-3.73-2.34-6.15-6.15-6.15h-10.03ZM410.86,88.18v11.71h12.15c3.73,0,5.93-2.2,6.15-5.64.07-2.05-.73-3.95-2.27-5.05-1.24-.88-2.71-1.02-4.39-1.02h-11.64Z"/>
  <path class="st0" d="M481.3,98.06c0,3-.14,4.61,3.37,4.39v6.59c-4.76,1.02-11.64,1.39-11.64-5.85-1.98,4.39-6.52,6.81-11.2,6.81-10.91-.22-15.96-8.64-15.96-18.67.37-11.93,8.49-18.23,20.42-18.01,5.2.07,10.32,1.32,15.01,3.29v21.45ZM471.35,82.54c-1.98-.8-4.1-1.03-5.86-1.03-5.56,0-9.15,3.08-9.37,9.81,0,5.56,2.63,9.66,7.91,9.59,4.91,0,7.1-3.88,7.32-9.22v-9.15Z"/>
  <path class="st0" d="M489.37,73.97c5.2-.95,13.47-1.46,13.47,5.34,2.27-4.17,6.44-6,11.13-6,9.96,0,14.13,6.81,13.91,15.59v9.59c0,3.29.14,4.9,3.73,4.68v6c-6.95,1.76-13.91.88-13.91-7.91v-12.37c.07-4.9-3.07-7.47-6.81-7.47-3.8-.22-7.39,2.78-7.39,7.69v20.28h-10.25v-24.38c0-3.88.08-5.27-3.88-5.05v-6Z"/>
  <path class="st0" d="M562.58,86.86c-1.17-3.22-4.17-4.83-7.25-4.83-4.39,0-9.08,3.22-9.08,9.59s4.68,9.88,9.15,9.74c3.08-.08,6.15-1.91,7.32-5.49h9.74c-1.46,9.3-9.15,14.06-17.13,14.28-9.44.29-19.26-5.93-19.26-18.52s9.81-18.82,19.26-18.6c7.83.15,15.37,4.76,16.98,13.84h-9.74Z"/>
  <path class="st0" d="M612.89,98.06c0,3-.14,4.61,3.37,4.39v6.59c-4.76,1.02-11.64,1.39-11.64-5.85-1.98,4.39-6.52,6.81-11.2,6.81-10.91-.22-15.96-8.64-15.96-18.67.37-11.93,8.49-18.23,20.43-18.01,5.2.07,10.32,1.32,15.01,3.29v21.45ZM602.93,82.54c-1.98-.8-4.1-1.03-5.86-1.03-5.56,0-9.15,3.08-9.37,9.81,0,5.56,2.64,9.66,7.91,9.59,4.91,0,7.1-3.88,7.32-9.22v-9.15Z"/>
  <path class="st0" d="M656.97,55.52v42.53c0,3-.14,4.61,3.37,4.4v6.59c-4.76,1.02-11.64,1.39-11.64-5.86-1.98,4.39-6.52,6.81-11.2,6.81-10.91-.22-15.96-8.64-15.96-18.67-.22-9.59,5.12-18.45,15.44-18.45,4.47,0,8.64,1.39,10.47,5.42v-22.77h9.52ZM639.69,100.91c4.98,0,7.47-4.1,7.47-9.66s-2.63-9.88-7.61-9.88c-5.35,0-7.76,4.32-7.76,9.95s2.63,9.66,7.91,9.59"/>
  <path class="st0" d="M701.05,98.06c0,3-.14,4.61,3.37,4.39v6.59c-4.76,1.02-11.64,1.39-11.64-5.85-1.98,4.39-6.52,6.81-11.2,6.81-10.91-.22-15.96-8.64-15.96-18.67.36-11.93,8.49-18.23,20.43-18.01,5.2.07,10.32,1.32,15.01,3.29v21.45ZM691.1,82.54c-1.98-.8-4.1-1.03-5.86-1.03-5.56,0-9.15,3.08-9.37,9.81,0,5.56,2.64,9.66,7.91,9.59,4.91,0,7.1-3.88,7.32-9.22v-9.15Z"/>
  <polygon class="st0" points="415.05 156.25 415.05 186.03 399.96 186.03 399.96 128.05 404.65 128.05 434.75 156.5 434.75 128.3 449.85 128.3 449.85 186.19 445.39 186.19 415.05 156.25"/>
  <path class="st0" d="M472.36,186.77c-7.42,0-14.19-4.87-14.43-12.54-.41-10.06,6.27-14.76,15.42-14.76,2.97,0,6.35.58,8.9,2.23v-1.24c0-4.04-5.52-4.54-8.57-4.54-3.88,0-7.59.41-10.97,2.15l-1.65-9.98c4.21-1.9,9.73-2.89,15.09-2.89,10.8,0,19.79,3.8,19.79,15.67v12.78c0,2.97,0,4.62,3.29,4.62v7.67c-5.69,1.32-13.19,2.06-14.1-5.44-2.23,4.62-8.08,6.27-12.78,6.27M482.17,170.27c-1.73-1.24-4.04-1.89-6.27-1.81-2.89.25-4.87,1.81-4.29,4.78.25,1.9,1.82,2.8,3.71,2.8,2.88,0,6.84-1.57,6.84-4.94v-.83Z"/>
  <path class="st0" d="M531.82,145.04c2.97-.08,5.85.74,8.08,2.39l-2.8,11.38c-2.23-1.57-4.62-2.06-6.84-1.98-4.7.25-8.74,3.21-8.74,9.24v19.95h-13.77v-27.71c0-3.05-.16-4.53-3.55-4.53v-7.67c5.52-1.32,16.24-2.23,16.9,5.44,1.57-4.37,6.19-6.51,10.72-6.51"/>
  <path class="st0" d="M556.48,186.77c-7.42,0-14.19-4.87-14.43-12.54-.41-10.06,6.27-14.76,15.42-14.76,2.97,0,6.35.58,8.9,2.23v-1.24c0-4.04-5.53-4.54-8.57-4.54-3.88,0-7.59.41-10.97,2.15l-1.65-9.98c4.21-1.9,9.73-2.89,15.09-2.89,10.8,0,19.79,3.8,19.79,15.67v12.78c0,2.97,0,4.62,3.29,4.62v7.67c-5.69,1.32-13.19,2.06-14.1-5.44-2.23,4.62-8.09,6.27-12.78,6.27M566.29,170.27c-1.73-1.24-4.04-1.89-6.26-1.81-2.89.25-4.87,1.81-4.29,4.78.25,1.9,1.82,2.8,3.71,2.8,2.89,0,6.84-1.57,6.84-4.94v-.83Z"/>
  <path class="st0" d="M618.25,186.03v-22.76c.08-4.54-2.72-6.76-5.77-6.84-3.3,0-6.68,2.31-6.68,7.09v22.51h-14.01v-27.63c0-3.05.16-4.54-3.38-4.54v-7.67c5.53-1.32,16.74-2.23,16.99,5.52,2.23-4.21,6.93-6.35,11.46-6.35,11.54,0,15.75,7.92,15.5,17.9v22.76h-14.1Z"/>
  <path class="st0" d="M655.6,146.44l-.08,44.29c0,15.25-8.91,18.55-21.28,16.16l.41-10.31c5.53.41,7.1-.41,7.1-6.02v-44.12h13.85ZM648.51,126.33c4.04,0,8.16,2.64,8.16,7.92s-3.96,7.92-8,8c-4.12.08-8.25-2.64-8.25-8s4.04-7.92,8.08-7.92"/>
  <path class="st0" d="M677.54,186.77c-7.42,0-14.19-4.87-14.43-12.54-.41-10.06,6.27-14.76,15.42-14.76,2.97,0,6.35.58,8.9,2.23v-1.24c0-4.04-5.52-4.54-8.58-4.54-3.88,0-7.59.41-10.97,2.15l-1.65-9.98c4.21-1.9,9.73-2.89,15.09-2.89,10.8,0,19.79,3.8,19.79,15.67v12.78c0,2.97,0,4.62,3.29,4.62v7.67c-5.69,1.32-13.19,2.06-14.1-5.44-2.23,4.62-8.08,6.27-12.78,6.27M687.35,170.27c-1.73-1.24-4.04-1.89-6.27-1.81-2.89.25-4.87,1.81-4.29,4.78.25,1.9,1.82,2.8,3.71,2.8,2.88,0,6.84-1.57,6.84-4.94v-.83Z"/>
</svg>
