<?xml version="1.0" encoding="UTF-8"?>
<svg id="Capa_1" xmlns="http://www.w3.org/2000/svg" version="1.1" viewBox="0 0 120 120">
  <!-- Generator: Adobe Illustrator 29.3.0, SVG Export Plug-In . SVG Version: 2.1.0 Build 146)  -->
  <defs>
    <style>
      .st0 {
        fill: #fff;
      }
    </style>
  </defs>
  <path class="st0" d="M87.17,27.01c-3.32,0-6.02,2.69-6.02,6.02s2.69,6.02,6.02,6.02,6.02-2.69,6.02-6.02-2.69-6.02-6.02-6.02Z"/>
  <path class="st0" d="M60.42,34.73c-13.94,0-25.28,11.34-25.28,25.27s11.34,25.27,25.28,25.27,25.27-11.34,25.27-25.27-11.34-25.27-25.27-25.27ZM60.42,76.19c-8.93,0-16.19-7.26-16.19-16.19s7.26-16.19,16.19-16.19,16.19,7.26,16.19,16.19-7.26,16.19-16.19,16.19Z"/>
  <path class="st0" d="M80.49,111.32h-40.97c-17,0-30.83-13.83-30.83-30.83v-40.98c0-17,13.83-30.83,30.83-30.83h40.97c17,0,30.83,13.83,30.83,30.83v40.98c0,17-13.83,30.83-30.83,30.83ZM39.51,18.34c-11.67,0-21.17,9.5-21.17,21.17v40.98c0,11.67,9.5,21.17,21.17,21.17h40.97c11.67,0,21.17-9.5,21.17-21.17v-40.98c0-11.67-9.5-21.17-21.17-21.17h-40.97Z"/>
</svg>