<?xml version="1.0" encoding="UTF-8"?>
<svg id="Capa_1" xmlns="http://www.w3.org/2000/svg" version="1.1" viewBox="0 0 120 120">
  <!-- Generator: Adobe Illustrator 29.3.0, SVG Export Plug-In . SVG Version: 2.1.0 Build 146)  -->
  <defs>
    <style>
      .st0 {
        fill: #fff;
      }
    </style>
  </defs>
  <path class="st0" d="M79.29,8.11c.33,13.04,9.01,23.26,21.83,25.67,1.22.23,2.49.26,3.73.35.48.03.76.12.75.68-.02,5.28-.02,10.55-.03,15.83,0,.09-.06.18-.13.35-4.7.05-9.26-.75-13.71-2.25-4.45-1.49-8.51-3.71-12.43-6.62,0,.56,0,.92,0,1.28.03,11.81.04,23.61.11,35.42.04,6.48-1.35,12.59-4.96,18.01-7,10.51-16.89,15.63-29.52,15.02-13.94-.68-25.68-10.23-29.4-23.57-4.65-16.7,5.3-34.38,22-39.18,4.28-1.23,8.62-1.63,13.05-1.16.37.04.73.12,1.15.2v17.06c-.31-.06-.59-.1-.86-.17-10.08-2.56-19.61,5.07-19.28,15.45.24,7.68,6.41,14.01,14.3,14.68,7.51.63,14.72-4.83,16.1-12.27.24-1.29.31-2.62.31-3.93.03-23.1.04-46.21.05-69.31,0-.51.05-1.01.07-1.52h16.85Z"/>
</svg>