<?xml version="1.0" encoding="UTF-8"?>
<svg id="Capa_1" xmlns="http://www.w3.org/2000/svg" version="1.1" viewBox="0 0 120 120">
  <!-- Generator: Adobe Illustrator 29.3.0, SVG Export Plug-In . SVG Version: 2.1.0 Build 146)  -->
  <defs>
    <style>
      .st0 {
        fill: #fff;
      }
    </style>
  </defs>
  <path class="st0" d="M16.31,104.73c.4-.47.73-.86,1.06-1.25,3.73-4.34,7.45-8.68,11.18-13.02,3.38-3.94,6.76-7.87,10.14-11.8,3.29-3.83,6.57-7.66,9.85-11.49.53-.62,1.06-1.24,1.6-1.85.2-.23.2-.39.02-.65-3.13-4.54-6.25-9.09-9.37-13.64-3.67-5.35-7.34-10.71-11-16.06-4.06-5.92-8.12-11.84-12.18-17.77-.42-.62-.85-1.23-1.33-1.93.27-.02.43-.05.59-.05,8.3,0,16.59,0,24.89,0,.38,0,.63.11.85.44,1.98,2.92,3.98,5.82,5.98,8.73,2.44,3.55,4.88,7.11,7.32,10.66,2.84,4.14,5.67,8.27,8.51,12.41.14.2.29.4.55.77.14-.22.22-.4.34-.54,3.68-4.3,7.37-8.59,11.05-12.88,3.68-4.28,7.35-8.56,11.03-12.84,1.81-2.1,3.62-4.21,5.41-6.32.26-.3.52-.42.92-.42,2.16.02,4.33,0,6.49.01.18,0,.35.03.64.05-.35.42-.63.75-.91,1.08-4.13,4.82-8.27,9.64-12.4,14.45-3.36,3.91-6.73,7.82-10.09,11.73-2.94,3.42-5.88,6.86-8.82,10.28-.23.26-.24.43-.04.73,3.47,5.03,6.92,10.08,10.38,15.12,2.88,4.2,5.78,8.39,8.66,12.59,3.31,4.82,6.6,9.65,9.9,14.48,1.93,2.82,3.87,5.63,5.81,8.45.11.16.21.33.36.55-.19.03-.29.05-.39.05-8.37,0-16.75,0-25.12.01-.44,0-.64-.22-.85-.53-2.73-4-5.47-7.99-8.21-11.99-3.03-4.42-6.07-8.84-9.11-13.26-1.97-2.87-3.94-5.74-5.9-8.61-.2-.3-.31-.35-.58-.04-4.37,5.11-8.75,10.21-13.14,15.31-3.69,4.29-7.37,8.58-11.06,12.88-1.68,1.96-3.37,3.92-5.05,5.89-.21.25-.45.35-.77.35-2.24,0-4.49,0-6.73,0-.13,0-.26-.02-.5-.05ZM26.87,21.06c.05.16.05.21.08.24.82,1.17,1.65,2.33,2.46,3.5,3.54,5.06,7.07,10.13,10.6,15.19,3.22,4.61,6.44,9.23,9.66,13.84,2.49,3.57,4.99,7.14,7.48,10.72,2.57,3.69,5.15,7.38,7.72,11.06,1.86,2.66,3.72,5.32,5.58,7.98,1.83,2.62,3.65,5.25,5.48,7.87,1.71,2.45,3.43,4.9,5.14,7.36.21.3.43.39.78.39,3.58,0,7.15,0,10.73,0,.16,0,.31-.03.52-.05-.07-.13-.1-.19-.13-.24-3.69-5.3-7.38-10.6-11.08-15.89-4.35-6.23-8.71-12.47-13.06-18.7-2.09-2.99-4.18-5.99-6.27-8.98-3.25-4.65-6.51-9.3-9.76-13.95-3.01-4.3-6.01-8.61-9.01-12.92-1.62-2.33-3.25-4.65-4.86-6.99-.21-.31-.44-.42-.81-.42-3.56.01-7.12,0-10.68,0h-.56Z"/>
</svg>